<mxfile host="app.diagrams.net" modified="2021-09-28T05:55:08.122Z" agent="5.0 (Windows NT 10.0; Win64; x64) AppleWebKit/537.36 (KHTML, like Gecko) Chrome/94.0.4606.61 Safari/537.36" etag="MCQO3lLkHLDc9fD4Moo2" version="15.3.5" type="github">
  <diagram id="3BFR3GqZxXMxbAWBfeUj" name="Page-1">
    <mxGraphModel dx="1038" dy="539" grid="0" gridSize="10" guides="1" tooltips="1" connect="1" arrows="1" fold="1" page="1" pageScale="1" pageWidth="827" pageHeight="1169" math="0" shadow="0">
      <root>
        <mxCell id="0" />
        <mxCell id="1" parent="0" />
        <mxCell id="7UlHeGkB-n3cVjGxctKM-30" value="" style="rounded=1;whiteSpace=wrap;html=1;dashed=1;" parent="1" vertex="1">
          <mxGeometry x="422.5" y="701" width="108.5" height="306" as="geometry" />
        </mxCell>
        <mxCell id="7UlHeGkB-n3cVjGxctKM-20" value="" style="rounded=1;whiteSpace=wrap;html=1;dashed=1;" parent="1" vertex="1">
          <mxGeometry x="595.75" y="110" width="192" height="98" as="geometry" />
        </mxCell>
        <mxCell id="EAKdSy7ptGbpC2-vD8Ey-16" value="" style="rounded=1;whiteSpace=wrap;html=1;dashed=1;" parent="1" vertex="1">
          <mxGeometry x="13" y="701" width="217.5" height="306" as="geometry" />
        </mxCell>
        <mxCell id="EAKdSy7ptGbpC2-vD8Ey-11" style="edgeStyle=none;rounded=1;orthogonalLoop=1;jettySize=auto;html=1;exitX=0.5;exitY=0;exitDx=0;exitDy=0;exitPerimeter=0;entryX=0.5;entryY=1;entryDx=0;entryDy=0;entryPerimeter=0;startArrow=none;startFill=0;endArrow=none;endFill=0;" parent="1" target="EAKdSy7ptGbpC2-vD8Ey-10" edge="1">
          <mxGeometry relative="1" as="geometry">
            <mxPoint x="78.5" y="832" as="sourcePoint" />
          </mxGeometry>
        </mxCell>
        <mxCell id="EAKdSy7ptGbpC2-vD8Ey-8" value="速宝SD-WAN设备&amp;nbsp;" style="shape=mxgraph.cisco.routers.content_service_router;html=1;pointerEvents=1;dashed=0;fillColor=#036897;strokeColor=#ffffff;strokeWidth=2;verticalLabelPosition=bottom;verticalAlign=top;align=center;outlineConnect=0;" parent="1" vertex="1">
          <mxGeometry x="44" y="822" width="70" height="38" as="geometry" />
        </mxCell>
        <mxCell id="EAKdSy7ptGbpC2-vD8Ey-10" value="电信光猫" style="shape=mxgraph.cisco.modems_and_phones.cable_modem;html=1;pointerEvents=1;dashed=0;fillColor=#036897;strokeColor=#ffffff;strokeWidth=2;verticalLabelPosition=bottom;verticalAlign=top;align=center;outlineConnect=0;" parent="1" vertex="1">
          <mxGeometry x="41.5" y="742" width="74" height="35" as="geometry" />
        </mxCell>
        <mxCell id="EAKdSy7ptGbpC2-vD8Ey-12" value="PC" style="shape=mxgraph.cisco.computers_and_peripherals.laptop;html=1;pointerEvents=1;dashed=0;fillColor=#036897;strokeColor=#ffffff;strokeWidth=2;verticalLabelPosition=bottom;verticalAlign=top;align=center;outlineConnect=0;" parent="1" vertex="1">
          <mxGeometry x="39" y="902" width="80" height="50" as="geometry" />
        </mxCell>
        <mxCell id="EAKdSy7ptGbpC2-vD8Ey-17" style="edgeStyle=none;rounded=1;orthogonalLoop=1;jettySize=auto;html=1;exitX=0.5;exitY=0;exitDx=0;exitDy=0;startArrow=none;startFill=0;endArrow=none;endFill=0;" parent="1" edge="1">
          <mxGeometry relative="1" as="geometry">
            <mxPoint x="120.25" y="703" as="sourcePoint" />
            <mxPoint x="120.25" y="703" as="targetPoint" />
          </mxGeometry>
        </mxCell>
        <mxCell id="pgLIFL3BZB2Xo_3dE_xm-6" value="&lt;span style=&quot;font-size: 14px&quot;&gt;分支一&lt;/span&gt;" style="text;html=1;resizable=0;autosize=1;align=center;verticalAlign=middle;points=[];fillColor=#fa6800;strokeColor=#C73500;rounded=0;dashed=1;fontColor=#ffffff;fontStyle=1" parent="1" vertex="1">
          <mxGeometry x="52.5" y="982" width="52" height="18" as="geometry" />
        </mxCell>
        <mxCell id="pgLIFL3BZB2Xo_3dE_xm-12" value="&lt;font style=&quot;font-size: 14px&quot;&gt;SD-WAN骨干网&lt;/font&gt;" style="text;html=1;resizable=0;autosize=1;align=center;verticalAlign=middle;points=[];fillColor=#fa6800;strokeColor=#C73500;rounded=0;dashed=1;fontColor=#ffffff;fontStyle=1" parent="1" vertex="1">
          <mxGeometry x="207.5" y="581" width="110" height="20" as="geometry" />
        </mxCell>
        <mxCell id="7UlHeGkB-n3cVjGxctKM-10" style="rounded=1;orthogonalLoop=1;jettySize=auto;html=1;exitX=0.5;exitY=0;exitDx=0;exitDy=0;exitPerimeter=0;endArrow=none;endFill=0;startArrow=none;startFill=0;entryX=0.08;entryY=0.05;entryDx=0;entryDy=0;entryPerimeter=0;" parent="1" source="CTemaUN2CCBBiWH_kIwZ-3" edge="1">
          <mxGeometry relative="1" as="geometry">
            <mxPoint x="108.5" y="622" as="sourcePoint" />
            <mxPoint x="351.5" y="277.5" as="targetPoint" />
          </mxGeometry>
        </mxCell>
        <mxCell id="7UlHeGkB-n3cVjGxctKM-11" style="edgeStyle=none;orthogonalLoop=1;jettySize=auto;html=1;startArrow=none;startFill=0;endArrow=none;endFill=0;rounded=1;strokeColor=#CC6600;strokeWidth=4;entryX=0.5;entryY=1;entryDx=0;entryDy=0;entryPerimeter=0;exitX=0.5;exitY=0;exitDx=0;exitDy=0;exitPerimeter=0;" parent="1" source="EAKdSy7ptGbpC2-vD8Ey-10" target="CTemaUN2CCBBiWH_kIwZ-15" edge="1">
          <mxGeometry relative="1" as="geometry">
            <mxPoint x="471.75" y="704" as="sourcePoint" />
            <mxPoint x="471.75" y="539" as="targetPoint" />
          </mxGeometry>
        </mxCell>
        <mxCell id="7UlHeGkB-n3cVjGxctKM-16" style="edgeStyle=none;orthogonalLoop=1;jettySize=auto;html=1;startArrow=none;startFill=0;endArrow=none;endFill=0;rounded=1;strokeColor=#CC6600;strokeWidth=4;exitX=0.5;exitY=0;exitDx=0;exitDy=0;exitPerimeter=0;entryX=0.5;entryY=1;entryDx=0;entryDy=0;entryPerimeter=0;" parent="1" source="CTemaUN2CCBBiWH_kIwZ-15" target="CTemaUN2CCBBiWH_kIwZ-6" edge="1">
          <mxGeometry relative="1" as="geometry">
            <mxPoint x="226" y="704" as="sourcePoint" />
            <mxPoint x="372.5" y="497.5" as="targetPoint" />
          </mxGeometry>
        </mxCell>
        <mxCell id="7UlHeGkB-n3cVjGxctKM-17" value="移动客户端" style="aspect=fixed;html=1;points=[];align=center;image;fontSize=12;image=img/lib/mscae/App_Service_Mobile_App.svg;" parent="1" vertex="1">
          <mxGeometry x="636.5" y="571.5" width="34" height="50" as="geometry" />
        </mxCell>
        <mxCell id="7UlHeGkB-n3cVjGxctKM-23" value="4G线路" style="points=[[0,0.58,0],[0.09,0.58,0],[0.36,0.39,0],[0.64,0.195,0],[0.91,0,0],[1,0,0],[1,0.25,0],[1,0.5,0],[1,0.75,0],[1,1,0],[0,1,0],[0.09,1,0],[0.36,1,0],[0.64,1,0],[0.91,1,0],[0,0.79,0]];verticalLabelPosition=bottom;html=1;verticalAlign=top;aspect=fixed;align=center;pointerEvents=1;shape=mxgraph.cisco19.wifi_indicator;fillColor=#005073;strokeColor=none;" parent="1" vertex="1">
          <mxGeometry x="145.5" y="732" width="45" height="45" as="geometry" />
        </mxCell>
        <mxCell id="7UlHeGkB-n3cVjGxctKM-24" style="rounded=1;orthogonalLoop=1;jettySize=auto;html=1;exitX=0.5;exitY=0;exitDx=0;exitDy=0;exitPerimeter=0;endArrow=none;endFill=0;startArrow=none;startFill=0;entryX=0.5;entryY=1;entryDx=0;entryDy=0;entryPerimeter=0;" parent="1" source="EAKdSy7ptGbpC2-vD8Ey-12" target="EAKdSy7ptGbpC2-vD8Ey-8" edge="1">
          <mxGeometry relative="1" as="geometry">
            <mxPoint x="53.5" y="967" as="sourcePoint" />
            <mxPoint x="-22" y="874" as="targetPoint" />
          </mxGeometry>
        </mxCell>
        <mxCell id="7UlHeGkB-n3cVjGxctKM-26" value="阿里云" style="pointerEvents=1;shadow=0;dashed=0;html=1;strokeColor=none;fillColor=#505050;labelPosition=center;verticalLabelPosition=bottom;outlineConnect=0;verticalAlign=top;align=center;shape=mxgraph.office.clouds.cloud;" parent="1" vertex="1">
          <mxGeometry x="429.75" y="715" width="94" height="55" as="geometry" />
        </mxCell>
        <mxCell id="7UlHeGkB-n3cVjGxctKM-28" style="rounded=1;orthogonalLoop=1;jettySize=auto;html=1;endArrow=none;endFill=0;startArrow=none;startFill=0;entryX=1;entryY=0.5;entryDx=0;entryDy=0;entryPerimeter=0;" parent="1" source="7UlHeGkB-n3cVjGxctKM-17" target="CTemaUN2CCBBiWH_kIwZ-15" edge="1">
          <mxGeometry relative="1" as="geometry">
            <mxPoint x="416.25" y="891" as="sourcePoint" />
            <mxPoint x="676.5" y="869" as="targetPoint" />
          </mxGeometry>
        </mxCell>
        <mxCell id="7UlHeGkB-n3cVjGxctKM-29" style="rounded=1;orthogonalLoop=1;jettySize=auto;html=1;endArrow=none;endFill=0;startArrow=none;startFill=0;exitX=0.5;exitY=0;exitDx=0;exitDy=0;exitPerimeter=0;" parent="1" target="7UlHeGkB-n3cVjGxctKM-26" edge="1">
          <mxGeometry relative="1" as="geometry">
            <mxPoint x="476.75" y="821" as="sourcePoint" />
            <mxPoint x="486.75" y="891" as="targetPoint" />
          </mxGeometry>
        </mxCell>
        <mxCell id="CTemaUN2CCBBiWH_kIwZ-3" value="速宝SD-WAN主设备&amp;nbsp;" style="shape=mxgraph.cisco.routers.content_service_router;html=1;pointerEvents=1;dashed=0;fillColor=#036897;strokeColor=#ffffff;strokeWidth=2;verticalLabelPosition=bottom;verticalAlign=top;align=center;outlineConnect=0;" parent="1" vertex="1">
          <mxGeometry x="137.5" y="277" width="70" height="48" as="geometry" />
        </mxCell>
        <mxCell id="CTemaUN2CCBBiWH_kIwZ-4" value="速宝SD-WAN备设备&amp;nbsp;" style="shape=mxgraph.cisco.routers.content_service_router;html=1;pointerEvents=1;dashed=0;fillColor=#036897;strokeColor=#ffffff;strokeWidth=2;verticalLabelPosition=bottom;verticalAlign=top;align=center;outlineConnect=0;" parent="1" vertex="1">
          <mxGeometry x="551" y="275" width="70" height="48" as="geometry" />
        </mxCell>
        <mxCell id="CTemaUN2CCBBiWH_kIwZ-8" style="rounded=1;orthogonalLoop=1;jettySize=auto;html=1;exitX=0.5;exitY=1;exitDx=0;exitDy=0;exitPerimeter=0;endArrow=none;endFill=0;startArrow=none;startFill=0;entryX=0;entryY=1;entryDx=0;entryDy=0;entryPerimeter=0;" parent="1" source="CTemaUN2CCBBiWH_kIwZ-3" edge="1">
          <mxGeometry relative="1" as="geometry">
            <mxPoint x="260.5" y="313.5" as="sourcePoint" />
            <mxPoint x="347.5" y="325" as="targetPoint" />
          </mxGeometry>
        </mxCell>
        <mxCell id="CTemaUN2CCBBiWH_kIwZ-9" style="rounded=1;orthogonalLoop=1;jettySize=auto;html=1;exitX=0.5;exitY=0;exitDx=0;exitDy=0;exitPerimeter=0;endArrow=none;endFill=0;startArrow=none;startFill=0;entryX=1;entryY=0;entryDx=0;entryDy=0;entryPerimeter=0;" parent="1" source="CTemaUN2CCBBiWH_kIwZ-4" edge="1">
          <mxGeometry relative="1" as="geometry">
            <mxPoint x="274.5" y="288" as="sourcePoint" />
            <mxPoint x="397.5" y="275" as="targetPoint" />
          </mxGeometry>
        </mxCell>
        <mxCell id="CTemaUN2CCBBiWH_kIwZ-10" style="rounded=1;orthogonalLoop=1;jettySize=auto;html=1;exitX=0.5;exitY=1;exitDx=0;exitDy=0;exitPerimeter=0;endArrow=none;endFill=0;startArrow=none;startFill=0;entryX=0.95;entryY=0.94;entryDx=0;entryDy=0;entryPerimeter=0;" parent="1" source="CTemaUN2CCBBiWH_kIwZ-4" edge="1">
          <mxGeometry relative="1" as="geometry">
            <mxPoint x="274.5" y="336" as="sourcePoint" />
            <mxPoint x="395" y="322" as="targetPoint" />
          </mxGeometry>
        </mxCell>
        <mxCell id="CTemaUN2CCBBiWH_kIwZ-6" value="路由器" style="shape=mxgraph.cisco.routers.atm_router;sketch=0;html=1;pointerEvents=1;dashed=0;fillColor=#036897;strokeColor=#ffffff;strokeWidth=2;verticalLabelPosition=bottom;verticalAlign=top;align=center;outlineConnect=0;" parent="1" vertex="1">
          <mxGeometry x="343.5" y="279.5" width="60" height="39" as="geometry" />
        </mxCell>
        <mxCell id="CTemaUN2CCBBiWH_kIwZ-13" value="服务器" style="shape=mxgraph.cisco.servers.file_server;sketch=0;html=1;pointerEvents=1;dashed=0;fillColor=#036897;strokeColor=#ffffff;strokeWidth=2;verticalLabelPosition=bottom;verticalAlign=top;align=center;outlineConnect=0;" parent="1" vertex="1">
          <mxGeometry x="351" y="133" width="43" height="58" as="geometry" />
        </mxCell>
        <mxCell id="CTemaUN2CCBBiWH_kIwZ-14" style="rounded=1;orthogonalLoop=1;jettySize=auto;html=1;exitX=0.5;exitY=1;exitDx=0;exitDy=0;exitPerimeter=0;endArrow=none;endFill=0;startArrow=none;startFill=0;entryX=0.5;entryY=0;entryDx=0;entryDy=0;entryPerimeter=0;" parent="1" source="CTemaUN2CCBBiWH_kIwZ-13" edge="1">
          <mxGeometry relative="1" as="geometry">
            <mxPoint x="480.25" y="285" as="sourcePoint" />
            <mxPoint x="372.5" y="275" as="targetPoint" />
          </mxGeometry>
        </mxCell>
        <mxCell id="CTemaUN2CCBBiWH_kIwZ-15" value="SD-WAN骨干网" style="sketch=0;points=[[0.5,0,0],[1,0.5,0],[0.5,1,0],[0,0.5,0],[0.145,0.145,0],[0.8555,0.145,0],[0.855,0.8555,0],[0.145,0.855,0]];verticalLabelPosition=bottom;html=1;verticalAlign=top;aspect=fixed;align=center;pointerEvents=1;shape=mxgraph.cisco19.rect;prIcon=vsmart;fillColor=#FAFAFA;strokeColor=#005073;" parent="1" vertex="1">
          <mxGeometry x="337" y="560" width="73" height="73" as="geometry" />
        </mxCell>
        <mxCell id="CTemaUN2CCBBiWH_kIwZ-16" value="" style="rounded=1;whiteSpace=wrap;html=1;dashed=1;" parent="1" vertex="1">
          <mxGeometry x="256" y="703" width="138" height="306" as="geometry" />
        </mxCell>
        <mxCell id="CTemaUN2CCBBiWH_kIwZ-17" style="edgeStyle=none;rounded=1;orthogonalLoop=1;jettySize=auto;html=1;exitX=0.5;exitY=0;exitDx=0;exitDy=0;exitPerimeter=0;entryX=0.5;entryY=1;entryDx=0;entryDy=0;entryPerimeter=0;startArrow=none;startFill=0;endArrow=none;endFill=0;" parent="1" source="CTemaUN2CCBBiWH_kIwZ-18" target="CTemaUN2CCBBiWH_kIwZ-19" edge="1">
          <mxGeometry relative="1" as="geometry">
            <mxPoint x="329.5" y="813" as="sourcePoint" />
          </mxGeometry>
        </mxCell>
        <mxCell id="CTemaUN2CCBBiWH_kIwZ-18" value="速宝SD-WAN设备&amp;nbsp;" style="shape=mxgraph.cisco.routers.content_service_router;html=1;pointerEvents=1;dashed=0;fillColor=#036897;strokeColor=#ffffff;strokeWidth=2;verticalLabelPosition=bottom;verticalAlign=top;align=center;outlineConnect=0;" parent="1" vertex="1">
          <mxGeometry x="294" y="816" width="70" height="38" as="geometry" />
        </mxCell>
        <mxCell id="CTemaUN2CCBBiWH_kIwZ-19" value="电信光猫" style="shape=mxgraph.cisco.modems_and_phones.cable_modem;html=1;pointerEvents=1;dashed=0;fillColor=#036897;strokeColor=#ffffff;strokeWidth=2;verticalLabelPosition=bottom;verticalAlign=top;align=center;outlineConnect=0;" parent="1" vertex="1">
          <mxGeometry x="292" y="738" width="74" height="35" as="geometry" />
        </mxCell>
        <mxCell id="CTemaUN2CCBBiWH_kIwZ-20" value="PC" style="shape=mxgraph.cisco.computers_and_peripherals.laptop;html=1;pointerEvents=1;dashed=0;fillColor=#036897;strokeColor=#ffffff;strokeWidth=2;verticalLabelPosition=bottom;verticalAlign=top;align=center;outlineConnect=0;" parent="1" vertex="1">
          <mxGeometry x="289.5" y="896" width="80" height="50" as="geometry" />
        </mxCell>
        <mxCell id="CTemaUN2CCBBiWH_kIwZ-21" style="edgeStyle=none;rounded=1;orthogonalLoop=1;jettySize=auto;html=1;exitX=0.5;exitY=0;exitDx=0;exitDy=0;startArrow=none;startFill=0;endArrow=none;endFill=0;" parent="1" source="CTemaUN2CCBBiWH_kIwZ-16" target="CTemaUN2CCBBiWH_kIwZ-16" edge="1">
          <mxGeometry relative="1" as="geometry" />
        </mxCell>
        <mxCell id="CTemaUN2CCBBiWH_kIwZ-22" value="&lt;span style=&quot;font-size: 14px&quot;&gt;分支二&lt;/span&gt;" style="text;html=1;resizable=0;autosize=1;align=center;verticalAlign=middle;points=[];fillColor=#fa6800;strokeColor=#C73500;rounded=0;dashed=1;fontColor=#ffffff;fontStyle=1" parent="1" vertex="1">
          <mxGeometry x="304" y="978" width="52" height="18" as="geometry" />
        </mxCell>
        <mxCell id="CTemaUN2CCBBiWH_kIwZ-23" style="rounded=1;orthogonalLoop=1;jettySize=auto;html=1;exitX=0.5;exitY=0;exitDx=0;exitDy=0;exitPerimeter=0;endArrow=none;endFill=0;startArrow=none;startFill=0;entryX=0.5;entryY=1;entryDx=0;entryDy=0;entryPerimeter=0;" parent="1" source="CTemaUN2CCBBiWH_kIwZ-20" target="CTemaUN2CCBBiWH_kIwZ-18" edge="1">
          <mxGeometry relative="1" as="geometry">
            <mxPoint x="304.5" y="948" as="sourcePoint" />
            <mxPoint x="229" y="855" as="targetPoint" />
          </mxGeometry>
        </mxCell>
        <mxCell id="CTemaUN2CCBBiWH_kIwZ-27" style="edgeStyle=none;rounded=1;orthogonalLoop=1;jettySize=auto;html=1;exitX=0.87;exitY=0.09;exitDx=0;exitDy=0;exitPerimeter=0;entryX=0.36;entryY=1;entryDx=0;entryDy=0;entryPerimeter=0;startArrow=none;startFill=0;endArrow=none;endFill=0;" parent="1" source="EAKdSy7ptGbpC2-vD8Ey-8" target="7UlHeGkB-n3cVjGxctKM-23" edge="1">
          <mxGeometry relative="1" as="geometry">
            <mxPoint x="176" y="862" as="sourcePoint" />
            <mxPoint x="176" y="807" as="targetPoint" />
          </mxGeometry>
        </mxCell>
        <mxCell id="CTemaUN2CCBBiWH_kIwZ-28" style="edgeStyle=none;orthogonalLoop=1;jettySize=auto;html=1;startArrow=none;startFill=0;endArrow=none;endFill=0;rounded=1;strokeColor=#CC6600;strokeWidth=4;entryX=0.5;entryY=1;entryDx=0;entryDy=0;entryPerimeter=0;exitX=1;exitY=0.5;exitDx=0;exitDy=0;exitPerimeter=0;" parent="1" source="7UlHeGkB-n3cVjGxctKM-23" target="CTemaUN2CCBBiWH_kIwZ-15" edge="1">
          <mxGeometry relative="1" as="geometry">
            <mxPoint x="145.5" y="732" as="sourcePoint" />
            <mxPoint x="383.5" y="643" as="targetPoint" />
          </mxGeometry>
        </mxCell>
        <mxCell id="CTemaUN2CCBBiWH_kIwZ-29" style="edgeStyle=none;orthogonalLoop=1;jettySize=auto;html=1;startArrow=none;startFill=0;endArrow=none;endFill=0;rounded=1;strokeColor=#CC6600;strokeWidth=4;entryX=0.5;entryY=0;entryDx=0;entryDy=0;entryPerimeter=0;exitX=0.5;exitY=1;exitDx=0;exitDy=0;exitPerimeter=0;" parent="1" source="CTemaUN2CCBBiWH_kIwZ-15" target="CTemaUN2CCBBiWH_kIwZ-19" edge="1">
          <mxGeometry relative="1" as="geometry">
            <mxPoint x="374.5" y="637" as="sourcePoint" />
            <mxPoint x="383.5" y="643" as="targetPoint" />
          </mxGeometry>
        </mxCell>
        <mxCell id="CTemaUN2CCBBiWH_kIwZ-32" value="VCPE" style="shape=mxgraph.cisco.routers.content_service_router;html=1;pointerEvents=1;dashed=0;fillColor=#036897;strokeColor=#ffffff;strokeWidth=2;verticalLabelPosition=bottom;verticalAlign=top;align=center;outlineConnect=0;" parent="1" vertex="1">
          <mxGeometry x="442.75" y="822" width="70" height="38" as="geometry" />
        </mxCell>
        <mxCell id="CTemaUN2CCBBiWH_kIwZ-34" value="VPC" style="shape=mxgraph.cisco.servers.www_server;sketch=0;html=1;pointerEvents=1;dashed=0;fillColor=#036897;strokeColor=#ffffff;strokeWidth=2;verticalLabelPosition=bottom;verticalAlign=top;align=center;outlineConnect=0;" parent="1" vertex="1">
          <mxGeometry x="449.88" y="896" width="53.75" height="45" as="geometry" />
        </mxCell>
        <mxCell id="CTemaUN2CCBBiWH_kIwZ-37" style="rounded=1;orthogonalLoop=1;jettySize=auto;html=1;endArrow=none;endFill=0;startArrow=none;startFill=0;exitX=0.5;exitY=1;exitDx=0;exitDy=0;exitPerimeter=0;entryX=0.5;entryY=0;entryDx=0;entryDy=0;entryPerimeter=0;" parent="1" source="CTemaUN2CCBBiWH_kIwZ-32" target="CTemaUN2CCBBiWH_kIwZ-34" edge="1">
          <mxGeometry relative="1" as="geometry">
            <mxPoint x="486.75" y="831" as="sourcePoint" />
            <mxPoint x="486.75" y="780" as="targetPoint" />
          </mxGeometry>
        </mxCell>
        <mxCell id="CTemaUN2CCBBiWH_kIwZ-38" value="&lt;span style=&quot;font-size: 14px&quot;&gt;分支三&lt;/span&gt;" style="text;html=1;resizable=0;autosize=1;align=center;verticalAlign=middle;points=[];fillColor=#fa6800;strokeColor=#C73500;rounded=0;dashed=1;fontColor=#ffffff;fontStyle=1" parent="1" vertex="1">
          <mxGeometry x="449.88" y="978" width="52" height="18" as="geometry" />
        </mxCell>
        <mxCell id="CTemaUN2CCBBiWH_kIwZ-41" value="" style="rounded=1;whiteSpace=wrap;html=1;dashed=1;" parent="1" vertex="1">
          <mxGeometry x="554.5" y="701" width="108.5" height="306" as="geometry" />
        </mxCell>
        <mxCell id="CTemaUN2CCBBiWH_kIwZ-42" value="华为云" style="pointerEvents=1;shadow=0;dashed=0;html=1;strokeColor=none;fillColor=#505050;labelPosition=center;verticalLabelPosition=bottom;outlineConnect=0;verticalAlign=top;align=center;shape=mxgraph.office.clouds.cloud;" parent="1" vertex="1">
          <mxGeometry x="561.75" y="715" width="94" height="55" as="geometry" />
        </mxCell>
        <mxCell id="CTemaUN2CCBBiWH_kIwZ-43" style="rounded=1;orthogonalLoop=1;jettySize=auto;html=1;endArrow=none;endFill=0;startArrow=none;startFill=0;exitX=0.5;exitY=0;exitDx=0;exitDy=0;exitPerimeter=0;" parent="1" target="CTemaUN2CCBBiWH_kIwZ-42" edge="1">
          <mxGeometry relative="1" as="geometry">
            <mxPoint x="608.75" y="821" as="sourcePoint" />
            <mxPoint x="618.75" y="891" as="targetPoint" />
          </mxGeometry>
        </mxCell>
        <mxCell id="CTemaUN2CCBBiWH_kIwZ-44" value="VCPE" style="shape=mxgraph.cisco.routers.content_service_router;html=1;pointerEvents=1;dashed=0;fillColor=#036897;strokeColor=#ffffff;strokeWidth=2;verticalLabelPosition=bottom;verticalAlign=top;align=center;outlineConnect=0;" parent="1" vertex="1">
          <mxGeometry x="574.75" y="822" width="70" height="38" as="geometry" />
        </mxCell>
        <mxCell id="CTemaUN2CCBBiWH_kIwZ-45" value="VPC" style="shape=mxgraph.cisco.servers.www_server;sketch=0;html=1;pointerEvents=1;dashed=0;fillColor=#036897;strokeColor=#ffffff;strokeWidth=2;verticalLabelPosition=bottom;verticalAlign=top;align=center;outlineConnect=0;" parent="1" vertex="1">
          <mxGeometry x="581.88" y="896" width="53.75" height="45" as="geometry" />
        </mxCell>
        <mxCell id="CTemaUN2CCBBiWH_kIwZ-46" style="rounded=1;orthogonalLoop=1;jettySize=auto;html=1;endArrow=none;endFill=0;startArrow=none;startFill=0;exitX=0.5;exitY=1;exitDx=0;exitDy=0;exitPerimeter=0;entryX=0.5;entryY=0;entryDx=0;entryDy=0;entryPerimeter=0;" parent="1" source="CTemaUN2CCBBiWH_kIwZ-44" target="CTemaUN2CCBBiWH_kIwZ-45" edge="1">
          <mxGeometry relative="1" as="geometry">
            <mxPoint x="618.75" y="831" as="sourcePoint" />
            <mxPoint x="618.75" y="780" as="targetPoint" />
          </mxGeometry>
        </mxCell>
        <mxCell id="CTemaUN2CCBBiWH_kIwZ-47" value="&lt;span style=&quot;font-size: 14px&quot;&gt;分支四&lt;/span&gt;" style="text;html=1;resizable=0;autosize=1;align=center;verticalAlign=middle;points=[];fillColor=#fa6800;strokeColor=#C73500;rounded=0;dashed=1;fontColor=#ffffff;fontStyle=1" parent="1" vertex="1">
          <mxGeometry x="581.88" y="978" width="52" height="18" as="geometry" />
        </mxCell>
        <mxCell id="CTemaUN2CCBBiWH_kIwZ-48" value="" style="rounded=1;whiteSpace=wrap;html=1;dashed=1;" parent="1" vertex="1">
          <mxGeometry x="686.5" y="701" width="108.5" height="306" as="geometry" />
        </mxCell>
        <mxCell id="CTemaUN2CCBBiWH_kIwZ-49" value="腾讯云" style="pointerEvents=1;shadow=0;dashed=0;html=1;strokeColor=none;fillColor=#505050;labelPosition=center;verticalLabelPosition=bottom;outlineConnect=0;verticalAlign=top;align=center;shape=mxgraph.office.clouds.cloud;" parent="1" vertex="1">
          <mxGeometry x="693.75" y="715" width="94" height="55" as="geometry" />
        </mxCell>
        <mxCell id="CTemaUN2CCBBiWH_kIwZ-50" style="rounded=1;orthogonalLoop=1;jettySize=auto;html=1;endArrow=none;endFill=0;startArrow=none;startFill=0;exitX=0.5;exitY=0;exitDx=0;exitDy=0;exitPerimeter=0;" parent="1" target="CTemaUN2CCBBiWH_kIwZ-49" edge="1">
          <mxGeometry relative="1" as="geometry">
            <mxPoint x="740.75" y="821" as="sourcePoint" />
            <mxPoint x="750.75" y="891" as="targetPoint" />
          </mxGeometry>
        </mxCell>
        <mxCell id="CTemaUN2CCBBiWH_kIwZ-51" value="VCPE" style="shape=mxgraph.cisco.routers.content_service_router;html=1;pointerEvents=1;dashed=0;fillColor=#036897;strokeColor=#ffffff;strokeWidth=2;verticalLabelPosition=bottom;verticalAlign=top;align=center;outlineConnect=0;" parent="1" vertex="1">
          <mxGeometry x="706.75" y="822" width="70" height="38" as="geometry" />
        </mxCell>
        <mxCell id="CTemaUN2CCBBiWH_kIwZ-52" value="VPC" style="shape=mxgraph.cisco.servers.www_server;sketch=0;html=1;pointerEvents=1;dashed=0;fillColor=#036897;strokeColor=#ffffff;strokeWidth=2;verticalLabelPosition=bottom;verticalAlign=top;align=center;outlineConnect=0;" parent="1" vertex="1">
          <mxGeometry x="713.88" y="896" width="53.75" height="45" as="geometry" />
        </mxCell>
        <mxCell id="CTemaUN2CCBBiWH_kIwZ-53" style="rounded=1;orthogonalLoop=1;jettySize=auto;html=1;endArrow=none;endFill=0;startArrow=none;startFill=0;exitX=0.5;exitY=1;exitDx=0;exitDy=0;exitPerimeter=0;entryX=0.5;entryY=0;entryDx=0;entryDy=0;entryPerimeter=0;" parent="1" source="CTemaUN2CCBBiWH_kIwZ-51" target="CTemaUN2CCBBiWH_kIwZ-52" edge="1">
          <mxGeometry relative="1" as="geometry">
            <mxPoint x="750.75" y="831" as="sourcePoint" />
            <mxPoint x="750.75" y="780" as="targetPoint" />
          </mxGeometry>
        </mxCell>
        <mxCell id="CTemaUN2CCBBiWH_kIwZ-54" value="&lt;span style=&quot;font-size: 14px&quot;&gt;分支五&lt;/span&gt;" style="text;html=1;resizable=0;autosize=1;align=center;verticalAlign=middle;points=[];fillColor=#fa6800;strokeColor=#C73500;rounded=0;dashed=1;fontColor=#ffffff;fontStyle=1" parent="1" vertex="1">
          <mxGeometry x="713.88" y="978" width="52" height="18" as="geometry" />
        </mxCell>
        <mxCell id="CTemaUN2CCBBiWH_kIwZ-55" style="edgeStyle=none;orthogonalLoop=1;jettySize=auto;html=1;startArrow=none;startFill=0;endArrow=none;endFill=0;rounded=1;strokeColor=#CC6600;strokeWidth=4;exitX=0.5;exitY=1;exitDx=0;exitDy=0;exitPerimeter=0;" parent="1" source="CTemaUN2CCBBiWH_kIwZ-15" target="7UlHeGkB-n3cVjGxctKM-26" edge="1">
          <mxGeometry relative="1" as="geometry">
            <mxPoint x="383.5" y="643" as="sourcePoint" />
            <mxPoint x="339" y="748" as="targetPoint" />
          </mxGeometry>
        </mxCell>
        <mxCell id="CTemaUN2CCBBiWH_kIwZ-56" style="edgeStyle=none;orthogonalLoop=1;jettySize=auto;html=1;startArrow=none;startFill=0;endArrow=none;endFill=0;rounded=1;strokeColor=#CC6600;strokeWidth=4;entryX=0.5;entryY=1;entryDx=0;entryDy=0;entryPerimeter=0;" parent="1" source="CTemaUN2CCBBiWH_kIwZ-42" target="CTemaUN2CCBBiWH_kIwZ-15" edge="1">
          <mxGeometry relative="1" as="geometry">
            <mxPoint x="383.5" y="643" as="sourcePoint" />
            <mxPoint x="460.81963470319624" y="725" as="targetPoint" />
          </mxGeometry>
        </mxCell>
        <mxCell id="CTemaUN2CCBBiWH_kIwZ-57" style="edgeStyle=none;orthogonalLoop=1;jettySize=auto;html=1;startArrow=none;startFill=0;endArrow=none;endFill=0;rounded=1;strokeColor=#CC6600;strokeWidth=4;exitX=0.5;exitY=1;exitDx=0;exitDy=0;exitPerimeter=0;" parent="1" source="CTemaUN2CCBBiWH_kIwZ-15" target="CTemaUN2CCBBiWH_kIwZ-49" edge="1">
          <mxGeometry relative="1" as="geometry">
            <mxPoint x="393.5" y="653" as="sourcePoint" />
            <mxPoint x="470.81963470319624" y="735" as="targetPoint" />
          </mxGeometry>
        </mxCell>
      </root>
    </mxGraphModel>
  </diagram>
</mxfile>
